<svg width="68" height="70" fill="none" xmlns="http://www.w3.org/2000/svg"><path d="M67.461 33.471C67.458 14.982 52.466-.004 33.975 0 15.485.004.5 14.996.504 33.486A33.479 33.479 0 0023.799 65.37c.133.042.27.063.41.063.263 0 .521-.071.748-.205.296-.175.516-.453.62-.78l8.454-26.797a4.184 4.184 0 10-1.837-7.95L21.025 18.53a1.395 1.395 0 00-1.972 1.973l11.163 11.176a4.104 4.104 0 001.174 5.051l-8.056 25.535C7.414 56.4-.738 38.74 5.126 22.82 10.991 6.9 28.65-1.252 44.571 4.613c15.92 5.864 24.072 23.524 18.207 39.444A30.72 30.72 0 0146.455 61.5l-.87-4.1a1.394 1.394 0 00-2.294-.752l-8.393 7.494a1.394 1.394 0 00.505 2.372l10.716 3.42a1.394 1.394 0 001.791-1.619l-.855-4.022a33.37 33.37 0 0020.406-30.82zm-33.478-1.394a1.395 1.395 0 110 2.79 1.395 1.395 0 010-2.79zm4.594 32.515l4.778-4.262 1.319 6.213-6.097-1.951z" fill="#212121"/></svg>