<svg width="55" height="61" fill="none" xmlns="http://www.w3.org/2000/svg"><path d="M54.063 25.974a3.88 3.88 0 00-2.599-1.541 3.886 3.886 0 00-2.93.77L45.794 27.3l-.001.002-4.151 3.1-2.97-1.183c5.296-2.377 8.998-7.675 8.998-13.826 0-8.363-6.83-15.167-15.227-15.167S17.216 7.031 17.216 15.394c0 3.031.907 5.85 2.45 8.222l-6.046-.053h-.01c-.019 0-.034.01-.051.01a1.136 1.136 0 00-.34.069c-.028.01-.057.016-.084.029-.014.006-.028.007-.042.014l-7.072 3.492h-.003L1.877 29.17a.898.898 0 00-.138.077A3.895 3.895 0 00.43 34.268a3.884 3.884 0 002.31 1.944 3.891 3.891 0 003.016-.281l3.036-1.614 4.952-2.558 2.968-.017L4.808 43.588c0 .002-.002.002-.003.003l-2.929 2.916a3.607 3.607 0 00-1.072 2.577c0 .973.38 1.888 1.072 2.578a3.647 3.647 0 002.58 1.062c.936 0 1.869-.355 2.582-1.062l2.875-2.863 3.808-2.843 1.97 1.962-3.854 3.837-.003.002-2.928 2.917a3.607 3.607 0 00-1.073 2.576c0 .973.38 1.89 1.073 2.579a3.65 3.65 0 002.58 1.061c.935 0 1.87-.354 2.582-1.061l2.93-2.917 4.686-4.667.002-.003 2.21-2.188-.01-.008c.015-.014.035-.019.049-.034l11.3-12.377 7.593 1.08c.055.008.11.012.164.012.142 0 .278-.034.41-.084.039-.014.072-.033.109-.051.042-.021.086-.033.126-.06l7.029-4.666c.026-.018.04-.046.064-.065.028-.022.063-.031.089-.056l2.78-2.605a3.891 3.891 0 00.465-5.166zM4.66 33.872c-.379.203-.81.244-1.221.113a1.564 1.564 0 01-.465-2.755l2.874-1.383.692 2.022.29.85-2.17 1.153zm7.65-3.998l-3.387 1.75-.558-1.633-.402-1.174 4.434-2.189-.087 3.246zm33.03-14.482c0 2.009-.48 3.904-1.31 5.599l-9.147-4.155a4.07 4.07 0 00-1.724-3.035L36.36 3.168c5.202 1.654 8.98 6.506 8.98 12.223zm-25.788 0c0-7.076 5.784-12.834 12.894-12.834.553 0 1.094.047 1.63.115L30.943 13.07c-.042 0-.081-.012-.125-.012a4.094 4.094 0 00-4.096 4.083 4.094 4.094 0 004.096 4.083c1.52 0 2.832-.838 3.54-2.066l8.45 3.839c-2.352 3.164-6.114 5.227-10.362 5.227-7.11 0-12.894-5.757-12.894-12.833zm13.03 1.75c0 .965-.792 1.75-1.764 1.75a1.759 1.759 0 01-1.762-1.75c0-.965.79-1.75 1.762-1.75s1.763.785 1.763 1.75zM5.391 50.007a1.331 1.331 0 01-1.87.002 1.299 1.299 0 010-1.847l2.105-2.097L7.49 47.92l-2.097 2.089zm7.03 8.167a1.33 1.33 0 01-1.87.002 1.3 1.3 0 010-1.847l2.106-2.098.88.876.983.978-2.099 2.09zm7.616-7.588l-.003.003-3.86 3.85-.882-.877-.982-.977 3.857-3.84v-.001l.004-.002c.087-.088.142-.193.196-.297.015-.03.044-.056.057-.087.036-.09.042-.187.056-.281.007-.054.03-.104.03-.159 0-.078-.028-.154-.044-.231-.014-.07-.014-.141-.041-.209a1.167 1.167 0 00-.2-.3c-.022-.027-.03-.06-.054-.084h-.002s0-.003-.002-.004l-3.515-3.5c-.037-.038-.085-.053-.127-.084a1.112 1.112 0 00-.19-.127 1.095 1.095 0 00-.205-.07 1.125 1.125 0 00-.225-.044 1.132 1.132 0 00-.209.01c-.078.01-.151.02-.227.045a1.08 1.08 0 00-.207.098c-.043.024-.092.033-.133.063l-3.879 2.896-1.97-1.963 5.247-5.22 9.54 9.382-2.03 2.01zm14.916-15.349c-.033-.004-.065.008-.099.006a1.153 1.153 0 00-.252.015 1.075 1.075 0 00-.404.15 1.13 1.13 0 00-.181.134c-.028.024-.062.036-.088.064L23.653 46.862l-9.468-9.311 6.197-6.165a1.168 1.168 0 00-.83-1.993l-4.854.028.061-3.516 6.79.058a15.2 15.2 0 0010.897 4.596c.957 0 1.89-.1 2.799-.268.087.07.174.14.283.185l5.272 2.1.333 1.66.39 1.936-6.569-.935zm8.84.39l-.684-3.408 3.164-2.363.828 1.1 1.242 1.65-4.55 3.02zm8.212-6.193l-1.833 1.717-2.037-2.704 1.818-1.394c.34-.261.768-.367 1.188-.313.422.06.796.28 1.05.622a1.562 1.562 0 01-.187 2.072z" fill="#212121"/></svg>