<svg width="140" height="19" fill="none" xmlns="http://www.w3.org/2000/svg"><path d="M7.656 1.008h3.048l1.92 5.64 1.92-5.64h3.072L14.712 8.76l2.16 5.448L21.696.96h3.6L18.36 18h-2.784l-2.952-7.152L9.672 18H6.888L0 .96h3.552L8.4 14.208l2.112-5.448-2.856-7.752zM31.735 18.24c-1.008 0-1.92-.168-2.736-.504a6.425 6.425 0 01-2.088-1.416 6.393 6.393 0 01-1.344-2.064 6.778 6.778 0 01-.456-2.472c0-.896.152-1.736.456-2.52.304-.8.744-1.496 1.32-2.088a6.244 6.244 0 012.088-1.44c.832-.352 1.76-.528 2.784-.528 1.024 0 1.936.176 2.736.528a6.154 6.154 0 012.064 1.416 5.787 5.787 0 011.296 2.064c.304.784.456 1.6.456 2.448 0 .208-.008.408-.024.6 0 .192-.016.352-.048.48h-9.72c.048.496.168.936.36 1.32a3.24 3.24 0 001.776 1.608 3.39 3.39 0 001.2.216c.64 0 1.24-.152 1.8-.456.576-.32.968-.736 1.176-1.248l2.76.768c-.464.96-1.208 1.752-2.232 2.376-1.008.608-2.216.912-3.624.912zm3.264-7.584c-.08-.944-.432-1.696-1.056-2.256-.608-.576-1.352-.864-2.232-.864-.432 0-.84.08-1.224.24a3.026 3.026 0 00-.984.624c-.288.272-.528.6-.72.984-.176.384-.28.808-.312 1.272h6.528zm13.143 7.584c-.96 0-1.816-.216-2.568-.648a4.731 4.731 0 01-1.776-1.776V18H40.99V.48h3.216v7.152c.448-.768 1.032-1.36 1.752-1.776.736-.432 1.592-.648 2.568-.648.816 0 1.56.176 2.232.528a5.471 5.471 0 011.728 1.416 6.111 6.111 0 011.128 2.088c.272.8.408 1.64.408 2.52 0 .912-.152 1.76-.456 2.544a6.362 6.362 0 01-1.224 2.064 5.893 5.893 0 01-1.872 1.368 5.437 5.437 0 01-2.328.504zm-.888-2.736c.512 0 .984-.096 1.416-.288.432-.208.8-.48 1.104-.816.304-.336.536-.728.696-1.176.176-.448.264-.928.264-1.44 0-.512-.08-1-.24-1.464a3.694 3.694 0 00-.696-1.224 3.27 3.27 0 00-1.032-.84c-.4-.208-.84-.312-1.32-.312-.72 0-1.368.24-1.944.72a4.648 4.648 0 00-1.296 1.728v3c.112.32.272.608.48.864.224.256.472.48.744.672.272.176.568.32.888.432.32.096.632.144.936.144z" fill="#2196F3"/><path d="M73.87 5.424c-.112-.112-.32-.264-.624-.456a6.127 6.127 0 00-1.08-.552 8.074 8.074 0 00-1.367-.48c-.497-.128-1-.192-1.513-.192-.912 0-1.591.168-2.04.504-.447.336-.671.808-.671 1.416 0 .352.08.648.24.888.175.224.424.424.743.6.32.176.72.336 1.2.48.496.144 1.065.296 1.705.456a23.59 23.59 0 012.256.72c.688.256 1.264.576 1.728.96.48.384.847.848 1.103 1.392.257.528.385 1.184.385 1.968 0 .912-.177 1.696-.529 2.352a4.22 4.22 0 01-1.392 1.56c-.575.4-1.248.696-2.015.888-.752.176-1.544.264-2.376.264-1.28 0-2.544-.192-3.793-.576a11.708 11.708 0 01-3.36-1.632l1.465-2.856c.144.144.4.336.767.576.385.224.832.456 1.344.696.512.224 1.08.416 1.704.576a7.7 7.7 0 001.92.24c1.825 0 2.736-.584 2.736-1.752 0-.368-.104-.68-.312-.936-.207-.256-.503-.48-.887-.672a8.5 8.5 0 00-1.392-.528c-.544-.16-1.153-.336-1.825-.528a17.453 17.453 0 01-2.135-.72c-.593-.272-1.089-.584-1.489-.936a3.801 3.801 0 01-.911-1.248c-.192-.48-.288-1.048-.288-1.704 0-.864.16-1.632.48-2.304.32-.672.76-1.232 1.32-1.68A5.998 5.998 0 0166.959 1.2a7.93 7.93 0 012.423-.36c1.2 0 2.304.192 3.313.576 1.008.368 1.888.808 2.64 1.32L73.87 5.424zm12.37 11.928c-.431.192-.96.384-1.583.576a6.654 6.654 0 01-1.968.288c-.448 0-.872-.056-1.272-.168a3.006 3.006 0 01-1.032-.528 2.856 2.856 0 01-.696-.96c-.176-.4-.264-.88-.264-1.44V7.896h-1.656V5.424h1.656v-4.08h3.216v4.08h2.64v2.472h-2.64v6.144c0 .448.112.768.336.96.24.176.528.264.864.264.336 0 .664-.056.984-.168.32-.112.576-.208.768-.288l.648 2.544zm6.236.888c-1.296 0-2.28-.416-2.952-1.248-.672-.832-1.008-2.064-1.008-3.696V5.424h3.216V12.6c0 1.936.696 2.904 2.088 2.904.624 0 1.224-.184 1.8-.552.592-.384 1.072-.96 1.44-1.728v-7.8h3.216v8.88c0 .336.056.576.168.72.128.144.328.224.6.24V18a6.713 6.713 0 01-1.392.144c-.576 0-1.048-.128-1.416-.384a1.617 1.617 0 01-.624-1.104l-.072-1.008c-.56.864-1.28 1.512-2.16 1.944-.88.432-1.848.648-2.904.648zm16.924 0a5.71 5.71 0 01-2.4-.504 5.66 5.66 0 01-1.896-1.392 6.716 6.716 0 01-1.248-2.064 7.525 7.525 0 01-.432-2.568c0-.912.136-1.76.408-2.544a6.87 6.87 0 011.176-2.064 5.365 5.365 0 011.776-1.392 5.071 5.071 0 012.256-.504c.928 0 1.76.224 2.496.672a4.84 4.84 0 011.752 1.752V.48h3.216v13.824c0 .336.056.576.168.72.112.144.304.224.576.24V18c-.56.112-1.016.168-1.368.168-.576 0-1.048-.144-1.416-.432a1.585 1.585 0 01-.624-1.128l-.072-.792a4.622 4.622 0 01-1.896 1.824c-.784.4-1.608.6-2.472.6zm.84-2.736c.304 0 .616-.048.936-.144a3.585 3.585 0 001.608-1.128c.224-.256.392-.536.504-.84v-3a3.193 3.193 0 00-.552-.96 3.279 3.279 0 00-.792-.768c-.288-.224-.6-.4-.936-.528a2.568 2.568 0 00-.96-.192c-.48 0-.928.104-1.344.312a3.14 3.14 0 00-1.032.864c-.288.352-.512.76-.672 1.224-.16.464-.24.944-.24 1.44 0 .528.088 1.016.264 1.464.176.448.416.84.72 1.176.304.336.664.6 1.08.792.432.192.904.288 1.416.288zM120.38 18V5.424h3.216V18h-3.216zm0-14.328V.48h3.216v3.192h-3.216zm12.645 14.568c-1.024 0-1.944-.176-2.76-.528a6.425 6.425 0 01-2.088-1.416 6.545 6.545 0 01-1.296-2.088 6.778 6.778 0 01-.456-2.472c0-.88.152-1.712.456-2.496a6.268 6.268 0 011.296-2.064 6.244 6.244 0 012.088-1.44c.816-.352 1.736-.528 2.76-.528 1.024 0 1.936.176 2.736.528a5.988 5.988 0 012.064 1.44 6.078 6.078 0 011.32 2.064c.304.784.456 1.616.456 2.496 0 .864-.152 1.688-.456 2.472a6.545 6.545 0 01-1.296 2.088 6.155 6.155 0 01-2.064 1.416c-.816.352-1.736.528-2.76.528zm-3.288-6.504c0 .56.08 1.072.24 1.536.176.448.408.84.696 1.176.304.336.656.6 1.056.792.4.176.832.264 1.296.264.464 0 .896-.088 1.296-.264.4-.192.744-.456 1.032-.792.304-.336.536-.736.696-1.2a4.3 4.3 0 00.264-1.536c0-.544-.088-1.048-.264-1.512a3.432 3.432 0 00-.696-1.2 2.862 2.862 0 00-1.032-.768 2.956 2.956 0 00-1.296-.288c-.464 0-.896.096-1.296.288-.4.192-.752.456-1.056.792-.288.336-.52.736-.696 1.2a4.61 4.61 0 00-.24 1.512z" fill="#212121"/></svg>